<svg xmlns="http://www.w3.org/2000/svg" width="28" height="36" viewBox="0 0 28 36">
  <metadata><?xpacket begin="﻿" id="W5M0MpCehiHzreSzNTczkc9d"?>
<x:xmpmeta xmlns:x="adobe:ns:meta/" x:xmptk="Adobe XMP Core 5.6-c138 79.159824, 2016/09/14-01:09:01        ">
   <rdf:RDF xmlns:rdf="http://www.w3.org/1999/02/22-rdf-syntax-ns#">
      <rdf:Description rdf:about=""/>
   </rdf:RDF>
</x:xmpmeta>
                                                                                                    
                                                                                                    
                                                                                                    
                                                                                                    
                                                                                                    
                                                                                                    
                                                                                                    
                                                                                                    
                                                                                                    
                                                                                                    
                                                                                                    
                                                                                                    
                                                                                                    
                                                                                                    
                                                                                                    
                                                                                                    
                                                                                                    
                                                                                                    
                                                                                                    
                                                                                                    
                           
<?xpacket end="w"?></metadata>
<defs>
    <style>
      .cls-1 {
        fill: #fff;
        fill-rule: evenodd;
      }
    </style>
  </defs>
  <path id="Forma_1" data-name="Forma 1" class="cls-1" d="M721,6265.6c4.093,0,7.411-3.94,7.411-8.8s-1.089-8.81-7.411-8.81-7.41,3.95-7.41,8.81S716.907,6265.6,721,6265.6Zm-14,13.44c0-.29,0-0.08,0,0h0ZM735,6279.27c0-.08,0-0.56,0,0h0Zm-0.016-.58c-0.137-8.48-1.268-10.89-9.923-12.41a6.177,6.177,0,0,1-8.116,0c-8.56,1.51-9.76,3.88-9.918,12.13a1.606,1.606,0,0,1-.021.63c0,0.15,0,.42,0,0.89,0,0,2.061,4.06,14,4.06s14-4.06,14-4.06c0-.3,0-0.51,0-0.66A4.579,4.579,0,0,1,734.98,6278.69Z" transform="translate(-707 -6248)"/>
</svg>
