<?xml version="1.0" encoding="UTF-8" standalone="no"?>
<!-- Created with Inkscape (http://www.inkscape.org/) -->

<svg
   xmlns:dc="http://purl.org/dc/elements/1.1/"
   xmlns:cc="http://creativecommons.org/ns#"
   xmlns:rdf="http://www.w3.org/1999/02/22-rdf-syntax-ns#"
   xmlns:svg="http://www.w3.org/2000/svg"
   xmlns="http://www.w3.org/2000/svg"
   xmlns:sodipodi="http://sodipodi.sourceforge.net/DTD/sodipodi-0.dtd"
   xmlns:inkscape="http://www.inkscape.org/namespaces/inkscape"
   width="15.371072mm"
   height="17.615547mm"
   viewBox="0 0 15.371072 17.615547"
   version="1.1"
   id="svg162"
   inkscape:version="0.92.2 (5c3e80d, 2017-08-06)"
   sodipodi:docname="logo.svg">
  <defs
     id="defs156" />
  <sodipodi:namedview
     id="base"
     pagecolor="#ffffff"
     bordercolor="#666666"
     borderopacity="1.0"
     inkscape:pageopacity="0.0"
     inkscape:pageshadow="2"
     inkscape:zoom="3.959798"
     inkscape:cx="42.905587"
     inkscape:cy="24.658797"
     inkscape:document-units="mm"
     inkscape:current-layer="layer1"
     showgrid="false"
     fit-margin-top="0"
     fit-margin-left="0"
     fit-margin-right="0"
     fit-margin-bottom="0"
     inkscape:window-width="1366"
     inkscape:window-height="705"
     inkscape:window-x="-8"
     inkscape:window-y="-8"
     inkscape:window-maximized="1" />
  <metadata
     id="metadata159">
    <rdf:RDF>
      <cc:Work
         rdf:about="">
        <dc:format>image/svg+xml</dc:format>
        <dc:type
           rdf:resource="http://purl.org/dc/dcmitype/StillImage" />
        <dc:title></dc:title>
      </cc:Work>
    </rdf:RDF>
  </metadata>
  <g
     inkscape:label="Layer 1"
     inkscape:groupmode="layer"
     id="layer1"
     transform="translate(-84.819718,-146.43662)">
    <path
       style="fill:#858585;stroke-width:0.26458335"
       d="m 88.772042,161.95922 -3.807404,-2.1755 -0.07246,-4.41393 -0.07246,-4.41394 3.767134,-2.25961 3.76714,-2.25962 1.95863,1.07496 c 1.07725,0.59122 2.80792,1.57549 3.84595,2.18725 l 1.887318,1.1123 0.0724,4.40006 0.0725,4.40007 -3.644328,2.17754 c -2.00438,1.19765 -3.71693,2.21543 -3.80567,2.26173 -0.0887,0.0463 -1.87467,-0.89479 -3.96875,-2.09131 z m 2.14572,-4.29217 v -1.45521 h 1.5875 1.5875 v 1.45521 1.45521 h 0.92604 0.92604 v -3.70417 -3.70416 h -0.92604 -0.92604 v 1.5875 1.5875 h -1.5875 -1.5875 v -1.5875 -1.5875 h -0.92604 -0.92604 v 3.70416 3.70417 h 0.92604 0.92604 z"
       id="path174"
       inkscape:connector-curvature="0" />
  </g>
</svg>
