<svg xmlns="http://www.w3.org/2000/svg" width="27.577" height="27.826" viewBox="0 0 7.2964559 7.3623638"><path d="M5.47 6.398c-.949-.973-.968-1.028-.5-1.452.46-.416.543-.382 1.505.602.86.882.965 1.106.679 1.452-.474.57-.572.536-1.684-.602zM1.69 5.297C.793 4.935 0 3.723 0 2.716 0 1.42 1.428 0 2.731 0c1.213 0 2.485 1.05 2.707 2.233.391 2.083-1.78 3.859-3.748 3.064zm2.46-1.11C5.438 2.977 4.525.794 2.732.794c-1.131 0-1.938.792-1.938 1.9 0 1.8 2.056 2.715 3.356 1.493zM1.32 2.123c.293-.548 1.33-1.235 1.321-.876-.005.246-1.185 1.399-1.43 1.399-.095 0-.045-.236.109-.523z" fill="#8f8f8f"/></svg>